<svg xmlns="http://www.w3.org/2000/svg" viewBox="0 0 512 512" width="512" height="512">
  <defs>
    <linearGradient id="grad" x1="0%" y1="0%" x2="100%" y2="100%">
      <stop offset="0%" style="stop-color:#1e3c72;stop-opacity:1" />
      <stop offset="100%" style="stop-color:#2a5298;stop-opacity:1" />
    </linearGradient>
  </defs>
  <rect width="512" height="512" rx="128" fill="url(#grad)"/>
  <!-- Headphones & Moon/Stars -->
  <path d="M256 120a136 136 0 0 0-136 136v96a40 40 0 0 0 40 40h16a8 8 0 0 0 8-8v-128a8 8 0 0 0-8-8h-32v-8a112 112 0 0 1 224 0v8h-32a8 8 0 0 0-8 8v128a8 8 0 0 0 8 8h16a40 40 0 0 0 40-40v-96a136 136 0 0 0-136-136z" fill="#ffffff"/>
  <circle cx="340" cy="180" r="15" fill="#fbc531"/>
  <circle cx="380" cy="150" r="8" fill="#fbc531"/>
  <circle cx="256" cy="270" r="30" fill="#ffffff" opacity="0.1"/>
</svg>
